<?xml version="1.0" encoding="UTF-8" standalone="no"?>
<svg
   xmlns:dc="http://purl.org/dc/elements/1.1/"
   xmlns:cc="http://creativecommons.org/ns#"
   xmlns:rdf="http://www.w3.org/1999/02/22-rdf-syntax-ns#"
   xmlns:svg="http://www.w3.org/2000/svg"
   xmlns="http://www.w3.org/2000/svg"
   xmlns:xlink="http://www.w3.org/1999/xlink"
   xmlns:sodipodi="http://sodipodi.sourceforge.net/DTD/sodipodi-0.dtd"
   xmlns:inkscape="http://www.inkscape.org/namespaces/inkscape"
   sodipodi:docname="githubCover.svg"
   inkscape:version="1.0 (4035a4fb49, 2020-05-01)"
   id="svg8"
   version="1.1"
   viewBox="0 0 210 297"
   height="1122.5197"
   width="793.70081">
  <defs
     id="defs2">
    <linearGradient
       id="linearGradient934"
       inkscape:collect="always">
      <stop
         id="stop930"
         offset="0"
         style="stop-color:#ffffa1;stop-opacity:1" />
      <stop
         style="stop-color:#ffffef;stop-opacity:1"
         offset="0.17277093"
         id="stop938" />
      <stop
         style="stop-color:#ffff9d;stop-opacity:1"
         offset="0.48177218"
         id="stop936" />
      <stop
         id="stop940"
         offset="0.81513327"
         style="stop-color:#ffffdf;stop-opacity:1" />
      <stop
         id="stop932"
         offset="1"
         style="stop-color:#ffffa1;stop-opacity:1" />
    </linearGradient>
    <linearGradient
       gradientUnits="userSpaceOnUse"
       y2="54.669147"
       x2="174.37018"
       y1="47.814232"
       x1="161.29333"
       id="linearGradient922"
       xlink:href="#linearGradient934"
       inkscape:collect="always" />
    <filter
       height="1.0209267"
       y="-0.010463359"
       width="1.0109592"
       x="-0.0054795864"
       id="filter1242"
       style="color-interpolation-filters:sRGB"
       inkscape:collect="always">
      <feGaussianBlur
         id="feGaussianBlur1244"
         stdDeviation="0.27598116"
         inkscape:collect="always" />
    </filter>
    <filter
       height="1.13469"
       y="-0.06734501"
       width="1.023459"
       x="-0.011729482"
       id="filter2106"
       style="color-interpolation-filters:sRGB"
       inkscape:collect="always">
      <feGaussianBlur
         id="feGaussianBlur2108"
         stdDeviation="0.29055117"
         inkscape:collect="always" />
    </filter>
    <linearGradient
       y2="54.669147"
       x2="174.37018"
       y1="47.814232"
       x1="161.29333"
       gradientUnits="userSpaceOnUse"
       id="linearGradient2201"
       xlink:href="#linearGradient934"
       inkscape:collect="always" />
  </defs>
  <sodipodi:namedview
     inkscape:window-maximized="1"
     inkscape:window-y="-8"
     inkscape:window-x="1912"
     inkscape:window-height="1027"
     inkscape:window-width="1920"
     inkscape:pagecheckerboard="true"
     showborder="false"
     inkscape:snap-nodes="false"
     inkscape:showpageshadow="false"
     units="px"
     showgrid="false"
     inkscape:document-rotation="0"
     inkscape:current-layer="g2199"
     inkscape:document-units="px"
     inkscape:cy="269.81003"
     inkscape:cx="495.64101"
     inkscape:zoom="0.98994949"
     inkscape:pageshadow="2"
     inkscape:pageopacity="0.0"
     borderopacity="1.0"
     bordercolor="#666666"
     pagecolor="#ffffff"
     id="base" />
  <metadata
     id="metadata5">
    <rdf:RDF>
      <cc:Work
         rdf:about="">
        <dc:format>image/svg+xml</dc:format>
        <dc:type
           rdf:resource="http://purl.org/dc/dcmitype/StillImage" />
        <dc:title></dc:title>
      </cc:Work>
    </rdf:RDF>
  </metadata>
  <g
     id="layer1"
     inkscape:groupmode="layer"
     inkscape:label="Layer 1">
    <g
       transform="translate(0.26726953,-17.639789)"
       id="g2199">
      <path
         transform="matrix(0.26458333,0,0,0.26458333,-0.26726953,17.639789)"
         d="M -0.41796875,1.4042969 V 438.0918 H 794.58203 V 271.89258 c -0.0301,-0.10084 -0.0296,-0.21338 0,-0.33399 V 1.4042969 Z"
         style="opacity:1;fill:#ffffff;fill-opacity:1;stroke:#000000;stroke-width:1.18024;stroke-opacity:1"
         id="rect833" />
      <text
         xml:space="preserve"
         style="font-style:normal;font-weight:normal;font-size:4.30165px;line-height:1.25;font-family:sans-serif;opacity:0.858065;fill:#e6e6e6;fill-opacity:1;stroke:none;stroke-width:0.107542;filter:url(#filter1242)"
         x="89.170753"
         y="21.775"
         id="text950"><tspan
           sodipodi:role="line"
           x="89.170753"
           y="21.775"
           style="fill:#e6e6e6;stroke-width:0.107542"
           id="tspan954">(function (root, factory) {</tspan><tspan
           sodipodi:role="line"
           x="89.170753"
           y="27.152061"
           style="fill:#e6e6e6;stroke-width:0.107542"
           id="tspan961">    if (typeof define === 'function' &amp;&amp; define.amd) {</tspan><tspan
           sodipodi:role="line"
           x="89.170753"
           y="32.529125"
           style="fill:#e6e6e6;stroke-width:0.107542"
           id="tspan963">        </tspan><tspan
           sodipodi:role="line"
           x="89.170753"
           y="37.906189"
           style="fill:#e6e6e6;stroke-width:0.107542"
           id="tspan965">        define(['b'], factory);</tspan><tspan
           sodipodi:role="line"
           x="89.170753"
           y="43.283249"
           style="fill:#e6e6e6;stroke-width:0.107542"
           id="tspan967">    } else {</tspan><tspan
           sodipodi:role="line"
           x="89.170753"
           y="48.660313"
           style="fill:#e6e6e6;stroke-width:0.107542"
           id="tspan969">       </tspan><tspan
           sodipodi:role="line"
           x="89.170753"
           y="54.037376"
           style="fill:#e6e6e6;stroke-width:0.107542"
           id="tspan971">        root.amdWeb = factory(root.b);</tspan><tspan
           sodipodi:role="line"
           x="89.170753"
           y="59.414436"
           style="fill:#e6e6e6;stroke-width:0.107542"
           id="tspan973">    }</tspan><tspan
           sodipodi:role="line"
           x="89.170753"
           y="64.791504"
           style="fill:#e6e6e6;stroke-width:0.107542"
           id="tspan975">}(typeof self !== 'undefined' ? self : this, function (b) {</tspan><tspan
           sodipodi:role="line"
           x="89.170753"
           y="70.168564"
           style="fill:#e6e6e6;stroke-width:0.107542"
           id="tspan977">    </tspan><tspan
           sodipodi:role="line"
           x="89.170753"
           y="75.545624"
           style="fill:#e6e6e6;stroke-width:0.107542"
           id="tspan987">    return {};</tspan><tspan
           sodipodi:role="line"
           x="89.170753"
           y="80.922691"
           style="fill:#e6e6e6;stroke-width:0.107542"
           id="tspan989">}));</tspan></text>
      <text
         xml:space="preserve"
         style="font-style:normal;font-variant:normal;font-weight:normal;font-stretch:normal;font-size:21.6179px;line-height:1.25;font-family:'Comic Sans MS';-inkscape-font-specification:'Comic Sans MS';fill:#000000;fill-opacity:1;stroke:none;stroke-width:0.540448"
         x="51.108036"
         y="63.467049"
         id="text849"><tspan
           sodipodi:role="line"
           id="tspan847"
           x="51.108036"
           y="63.467049"
           style="font-style:normal;font-variant:normal;font-weight:normal;font-stretch:normal;font-family:'Comic Sans MS';-inkscape-font-specification:'Comic Sans MS';stroke-width:0.540448">Tanglesite</tspan></text>
      <text
         xml:space="preserve"
         style="font-style:normal;font-weight:normal;font-size:7.82991px;line-height:1.25;font-family:sans-serif;fill:#000000;fill-opacity:1;stroke:none;stroke-width:0.195748"
         x="42.98019"
         y="77.968224"
         id="text853"><tspan
           sodipodi:role="line"
           id="tspan851"
           x="42.98019"
           y="77.968224"
           style="stroke-width:0.195748">Developer</tspan></text>
      <text
         id="text861"
         y="77.838234"
         x="136.34032"
         style="font-style:normal;font-weight:normal;font-size:7.82991px;line-height:1.25;font-family:sans-serif;fill:#000000;fill-opacity:1;stroke:none;stroke-width:0.195748"
         xml:space="preserve"><tspan
           style="stroke-width:0.195748"
           y="77.838234"
           x="136.34032"
           id="tspan859"
           sodipodi:role="line">Designer</tspan></text>
      <text
         xml:space="preserve"
         style="font-style:normal;font-weight:normal;font-size:7.82991px;line-height:1.25;font-family:sans-serif;fill:#000000;fill-opacity:1;stroke:none;stroke-width:0.195748"
         x="92.244736"
         y="77.838234"
         id="text865"><tspan
           sodipodi:role="line"
           id="tspan863"
           x="92.244736"
           y="77.838234"
           style="stroke-width:0.195748">Engineer</tspan></text>
      <circle
         style="opacity:1;fill:#333333;fill-opacity:1;stroke:none;stroke-width:0.264583;stroke-opacity:1"
         id="path901"
         cx="159.22247"
         cy="63.027531"
         r="1.6063988" />
      <path
         id="path903"
         style="opacity:1;fill:url(#linearGradient2201);fill-opacity:1;stroke:none;stroke-width:0.219115;stroke-opacity:1"
         inkscape:transform-center-x="-2.2630011"
         inkscape:transform-center-y="0.038766905"
         d="m 161.76162,59.949588 -0.0671,-7.955269 -0.0671,-7.955268 c 0,0 2.54479,0.382177 3.75501,0.797844 1.29301,0.444106 2.50594,1.107381 3.689,1.792568 1.21364,0.702894 2.39469,1.476964 3.47829,2.367352 1.05717,0.868671 2.92377,2.881209 2.92377,2.881209 l -6.85589,4.035778 z"
         sodipodi:nodetypes="cccaaaccc" />
      <path
         style="fill:#fff578;fill-opacity:1;stroke:#000000;stroke-width:0.105833;stroke-linecap:round;stroke-linejoin:miter;stroke-miterlimit:4;stroke-dasharray:none;stroke-opacity:0"
         d="m 161.62742,44.039051 17.50998,-25.998358 17.63979,0.06681 -21.3037,33.770512 -4.02009,-3.70269 -3.94223,-2.539061 -3.20723,-1.135896 z"
         id="path906"
         sodipodi:nodetypes="cccccccc" />
      <path
         sodipodi:nodetypes="cccaaaccc"
         d="m 161.76162,59.949588 -0.025,-2.964573 -0.025,-2.964572 c 0,0 0.94833,0.14242 1.39932,0.297321 0.48185,0.165498 0.93386,0.412671 1.37473,0.66801 0.45227,0.261937 0.89239,0.550398 1.2962,0.882206 0.39396,0.323714 1.08956,1.073697 1.08956,1.073697 l -2.55488,1.503954 z"
         inkscape:transform-center-y="0.014446821"
         inkscape:transform-center-x="-0.84332902"
         style="opacity:1;fill:#333333;fill-opacity:1;stroke:none;stroke-width:0.0816543;stroke-opacity:1"
         id="path908" />
      <path
         style="fill:none;stroke:#000000;stroke-width:0.15875;stroke-linecap:butt;stroke-linejoin:miter;stroke-miterlimit:4;stroke-dasharray:none;stroke-opacity:1"
         d="m 164.30394,44.500368 7.48624,-11.380205 v 0"
         id="path910" />
      <path
         style="fill:none;stroke:#000000;stroke-width:0.274902;stroke-linecap:butt;stroke-linejoin:miter;stroke-miterlimit:4;stroke-dasharray:none;stroke-opacity:1"
         d="M 167.58351,45.590138 184.00207,21.071053"
         id="path912" />
      <path
         style="fill:none;stroke:#000000;stroke-width:0.243681;stroke-linecap:butt;stroke-linejoin:miter;stroke-miterlimit:4;stroke-dasharray:none;stroke-opacity:1"
         d="M 171.56749,48.102193 184.85801,27.665394"
         id="path914" />
      <path
         d="m -1.7101494,120.84811 0.00103,0.0703 c 0.026564,-0.002 0.049785,-0.005 0.082165,-0.006 5.238e-4,-1.8e-4 0.00155,-2.2e-4 0.00207,-5.3e-4 0.07522,-0.0257 0.145039,-0.0479 0.2144571,-0.0641 z m 11.332125,0 v 1.30121 c -0.134427,-0.0699 -0.262593,-0.12122 -0.384473,-0.15348 -0.12188,-0.0341 -0.261368,-0.0512 -0.419096,-0.0512 -0.173858,0 -0.342291,0.0358 -0.505395,0.10749 -0.161312,0.0717 -0.3029,0.1759 -0.424781,0.31212 -0.123672,0.13981 -0.222619,0.30903 -0.296106,0.50798 -0.07169,0.19895 -0.107487,0.42608 -0.107487,0.68058 0,0.48931 0.105004,0.87171 0.31471,1.14774 0.211498,0.27602 0.496257,0.41392 0.854728,0.41392 0.184613,0 0.355936,-0.035 0.513664,-0.1049 0.157727,-0.0699 0.309055,-0.16754 0.454236,-0.29301 v 0.31471 h 0.5053954 v -4.1832 z m 32.3163744,0 v 1.30121 c -0.134427,-0.0699 -0.262594,-0.12122 -0.384474,-0.15348 -0.12188,-0.0341 -0.261885,-0.0512 -0.419613,-0.0512 -0.173858,0 -0.342289,0.0358 -0.505394,0.10749 -0.161314,0.0717 -0.3029,0.1759 -0.424781,0.31212 -0.123674,0.13981 -0.222102,0.30903 -0.29559,0.50798 -0.07169,0.19895 -0.107487,0.42608 -0.107487,0.68058 0,0.48931 0.105006,0.87171 0.314709,1.14774 0.2115,0.27602 0.496258,0.41392 0.854729,0.41392 0.184613,0 0.355936,-0.035 0.513664,-0.1049 0.157726,-0.0699 0.309055,-0.16754 0.454237,-0.29301 v 0.31471 h 0.505394 v -4.1832 z m -9.856248,0.0966 c -0.173857,0 -0.333343,0.0268 -0.478522,0.0806 -0.143389,0.0538 -0.259715,0.12377 -0.349332,0.2098 -0.095,0.0896 -0.167098,0.18884 -0.215493,0.29817 -0.0466,0.10755 -0.06976,0.2215 -0.06976,0.34159 0,0.19895 0.04316,0.3637 0.129191,0.49454 0.08783,0.13084 0.230206,0.26111 0.427366,0.39016 -0.095,0.0556 -0.188952,0.12109 -0.282155,0.19637 -0.0932,0.0735 -0.171362,0.15192 -0.234092,0.23616 -0.06273,0.0878 -0.117227,0.19204 -0.163814,0.31212 -0.0466,0.12009 -0.06977,0.26247 -0.06977,0.42737 0,0.35309 0.122383,0.63916 0.367938,0.85783 0.247345,0.21687 0.557366,0.32504 0.930174,0.32504 0.227629,0 0.448961,-0.05 0.664043,-0.15038 0.215083,-0.10216 0.425882,-0.28033 0.632003,-0.53485 l 0.615984,0.60203 h 0.66094 l -1.015958,-0.9896 c 0.10754,-0.19537 0.1836,-0.40038 0.22841,-0.61547 0.04481,-0.21508 0.06718,-0.40877 0.06718,-0.58084 v -0.25786 h -0.523998 v 0.31419 c 0.0019,0.12367 5.29e-4,0.23604 -0.0031,0.33641 -0.0019,0.0932 -0.0087,0.18268 -0.02119,0.26872 -0.01254,0.086 -0.03175,0.16498 -0.05684,0.23668 l -0.997355,-0.97307 c 0.168481,-0.0574 0.305594,-0.12657 0.411343,-0.20722 0.105748,-0.0807 0.187592,-0.16488 0.244945,-0.2527 0.05198,-0.0789 0.08856,-0.16755 0.110072,-0.26614 0.02151,-0.10037 0.03204,-0.18985 0.03204,-0.26871 0,-0.24018 -0.09554,-0.43834 -0.287319,-0.59428 -0.191783,-0.15773 -0.442849,-0.23668 -0.752928,-0.23668 z m -37.0370146,0.22069 v 0.25218 c 0.032358,5.3e-4 0.064702,0.001 0.097152,0.004 0.00204,-0.004 0.00523,-0.009 0.00723,-0.0129 -7.673e-4,-0.0403 -0.00364,-0.0806 -0.00413,-0.12092 -5.027e-4,-0.0406 0.00156,-0.0813 0.0031,-0.12196 z m 10.4851482,0 v 0.863 h -0.341581 v 0.42478 h 0.341581 v 1.5968 c 0,0.36385 0.07974,0.62834 0.239262,0.79323 0.15952,0.1649 0.39269,0.24701 0.699182,0.24701 0.08783,0 0.187047,-0.008 0.298173,-0.0238 0.112918,-0.0161 0.217131,-0.0369 0.312126,-0.062 v -0.45423 h -0.02687 c -0.03943,0.0161 -0.104169,0.0364 -0.193787,0.0615 -0.08962,0.0233 -0.175934,0.0351 -0.258382,0.0351 -0.141596,0 -0.246875,-0.0163 -0.316776,-0.0486 -0.06811,-0.0341 -0.122316,-0.087 -0.161748,-0.15865 -0.04302,-0.0771 -0.06776,-0.15919 -0.07493,-0.24702 -0.0072,-0.0896 -0.01085,-0.2133 -0.01085,-0.37103 v -1.36839 h 1.043347 v -0.42478 h -1.043347 v -0.863 z m 12.5392864,0 v 0.863 h -0.341581 v 0.42478 h 0.341581 v 1.5968 c 0,0.36385 0.07974,0.62834 0.239262,0.79323 0.15952,0.1649 0.392689,0.24701 0.699182,0.24701 0.08783,0 0.187047,-0.008 0.298173,-0.0238 0.112918,-0.0161 0.217131,-0.0369 0.312126,-0.062 v -0.45423 h -0.02687 c -0.03943,0.0161 -0.104169,0.0364 -0.193787,0.0615 -0.08962,0.0233 -0.175418,0.0351 -0.257865,0.0351 -0.141596,0 -0.247391,-0.0163 -0.317293,-0.0486 -0.06811,-0.0341 -0.121799,-0.087 -0.161231,-0.15865 -0.04302,-0.0771 -0.06828,-0.15919 -0.07545,-0.24702 -0.0072,-0.0896 -0.01085,-0.2133 -0.01085,-0.37103 v -1.36839 h 1.043347 v -0.42478 h -1.043349 v -0.863 z m 19.776571,0 v 0.863 h -0.341064 v 0.42478 h 0.341064 v 1.5968 c 0,0.36385 0.08026,0.62834 0.239778,0.79323 0.15952,0.1649 0.392174,0.24701 0.698664,0.24701 0.08783,0 0.187566,-0.008 0.298691,-0.0238 0.112919,-0.0161 0.216614,-0.0369 0.31161,-0.062 v -0.45423 h -0.02687 c -0.03943,0.0161 -0.103651,0.0364 -0.193271,0.0615 -0.08962,0.0233 -0.175932,0.0351 -0.258381,0.0351 -0.141597,0 -0.247391,-0.0163 -0.317294,-0.0486 -0.06811,-0.0341 -0.121798,-0.087 -0.161229,-0.15865 -0.04302,-0.0771 -0.06828,-0.15919 -0.07545,-0.24702 -0.0072,-0.0896 -0.01035,-0.2133 -0.01035,-0.37103 v -1.36839 h 1.042832 v -0.42478 h -1.042832 v -0.863 z m -40.5132898,0.0749 -0.00672,0.0119 c -0.00379,0.026 -0.00624,0.0516 -0.00982,0.0775 0.014113,-0.0177 0.033091,-0.0357 0.067179,-0.0594 z m 2.26084343,0.003 -0.05994,0.0351 c 0.05727,0.0742 0.105662,0.16436 0.153996,0.27956 0.0016,0.007 6.87e-4,0.0148 0.0021,0.0222 l 0.07596,-0.0408 z M 32.055231,121.281 c 0.157729,0 0.286684,0.0492 0.387057,0.14779 0.102163,0.0968 0.153479,0.23074 0.153479,0.40101 0,0.19358 -0.04605,0.35096 -0.137459,0.47284 -0.08962,0.12009 -0.222258,0.21167 -0.397909,0.2744 -0.2348,-0.14159 -0.38771,-0.26449 -0.459404,-0.36845 -0.0699,-0.10396 -0.104902,-0.22317 -0.104902,-0.3576 0,-0.15952 0.05211,-0.29374 0.156061,-0.40308 0.103958,-0.11112 0.238181,-0.16691 0.403077,-0.16691 z m -15.93236,0.66404 c -0.18999,0 -0.368954,0.0387 -0.537435,0.11576 -0.166689,0.0753 -0.317225,0.16923 -0.451652,0.28215 v -0.31419 h -0.505396 v 4.11034 h 0.505396 v -1.2578 c 0.130842,0.0717 0.259008,0.12459 0.384473,0.15864 0.127256,0.0341 0.268845,0.0506 0.42478,0.0506 0.179235,0 0.348459,-0.0358 0.507979,-0.10748 0.161312,-0.0735 0.301317,-0.17639 0.419613,-0.30903 0.127257,-0.1398 0.225687,-0.30982 0.295589,-0.51056 0.0699,-0.20254 0.104903,-0.42596 0.104903,-0.66973 0,-0.48573 -0.101321,-0.86496 -0.303857,-1.13739 -0.200744,-0.27423 -0.482337,-0.41135 -0.844393,-0.41135 z m -12.4504034,0.0109 c -0.191782,0 -0.36548,0.0253 -0.521415,0.0754 -0.154143,0.0484 -0.281517,0.11473 -0.381889,0.19896 -0.103957,0.086 -0.182116,0.18367 -0.234094,0.29301 -0.05019,0.10933 -0.07545,0.22566 -0.07545,0.34933 0,0.19716 0.055,0.36401 0.164331,0.50022 0.111126,0.13443 0.298247,0.23654 0.561723,0.30645 0.09499,0.0251 0.2,0.0482 0.31471,0.0698 0.116503,0.0215 0.210459,0.0407 0.282153,0.0568 0.193574,0.043 0.324631,0.0946 0.392741,0.15555 0.06811,0.0609 0.101802,0.15094 0.101802,0.26923 0,0.15415 -0.06264,0.26679 -0.188102,0.33848 -0.125465,0.0717 -0.299163,0.10749 -0.521415,0.10749 -0.179236,0 -0.366356,-0.035 -0.561723,-0.1049 -0.195367,-0.072 -0.373264,-0.16729 -0.532784,-0.28738 h -0.02687 v 0.56689 c 0.125465,0.0627 0.280476,0.12142 0.465088,0.17518 0.186405,0.052 0.391147,0.0775 0.613399,0.0775 0.392527,0 0.701756,-0.0874 0.927593,-0.26303 0.227629,-0.17566 0.341064,-0.40067 0.341064,-0.6749 0,-0.21867 -0.06343,-0.39446 -0.190686,-0.5271 -0.127257,-0.13084 -0.308321,-0.22321 -0.543119,-0.27698 -0.07707,-0.0179 -0.17392,-0.0374 -0.290422,-0.0589 -0.114711,-0.0215 -0.218406,-0.0431 -0.311609,-0.0646 -0.168481,-0.0394 -0.29059,-0.0907 -0.365869,-0.15348 -0.07707,-0.0627 -0.115755,-0.15589 -0.115755,-0.27957 0,-0.1398 0.06395,-0.2448 0.191203,-0.31471 0.127257,-0.0717 0.283059,-0.10748 0.467671,-0.10748 0.177444,0 0.358507,0.0334 0.54312,0.0997 0.184612,0.0645 0.341205,0.14427 0.470255,0.23926 h 0.02687 v -0.54053 c -0.12188,-0.0627 -0.274792,-0.11563 -0.459403,-0.15865 -0.182821,-0.0448 -0.363884,-0.0672 -0.54312,-0.0672 z m 32.3158584,0 c -0.191783,0 -0.365482,0.0253 -0.521417,0.0754 -0.154141,0.0484 -0.281517,0.11473 -0.381889,0.19896 -0.103955,0.086 -0.181599,0.18367 -0.233577,0.29301 -0.05019,0.10933 -0.07545,0.22566 -0.07545,0.34933 0,0.19716 0.05448,0.36401 0.163814,0.50022 0.111127,0.13443 0.298765,0.23654 0.562239,0.30645 0.095,0.0251 0.199999,0.0482 0.314712,0.0698 0.116501,0.0215 0.210457,0.0407 0.282151,0.0568 0.193575,0.043 0.324115,0.0946 0.392227,0.15555 0.06811,0.0609 0.102317,0.15094 0.102317,0.26923 0,0.15415 -0.06264,0.26679 -0.188101,0.33848 -0.125465,0.0717 -0.299164,0.10749 -0.521417,0.10749 -0.179234,0 -0.366871,-0.035 -0.562239,-0.1049 -0.195366,-0.0717 -0.372748,-0.16724 -0.532268,-0.28732 h -0.02687 v 0.56689 c 0.125465,0.0627 0.280477,0.12141 0.46509,0.17518 0.186391,0.052 0.390628,0.0775 0.612881,0.0775 0.392525,0 0.701754,-0.0874 0.927592,-0.26303 0.227629,-0.17565 0.341582,-0.40066 0.341582,-0.67489 0,-0.21867 -0.06343,-0.39447 -0.190688,-0.5271 -0.127256,-0.13084 -0.308319,-0.22322 -0.543118,-0.27699 -0.07707,-0.0179 -0.173918,-0.0374 -0.290422,-0.0589 -0.11471,-0.0215 -0.218935,-0.0431 -0.312124,-0.0646 -0.168484,-0.0394 -0.290076,-0.0907 -0.365352,-0.15348 -0.07707,-0.0627 -0.115756,-0.1559 -0.115756,-0.27957 0,-0.13981 0.06343,-0.24481 0.190686,-0.31471 0.127256,-0.0717 0.283575,-0.10749 0.468188,-0.10749 0.177442,0 0.358507,0.0334 0.543118,0.0997 0.184613,0.0645 0.341206,0.14426 0.470257,0.23926 h 0.02687 v -0.54054 c -0.12188,-0.0627 -0.275307,-0.11563 -0.45992,-0.15864 -0.182822,-0.0448 -0.363897,-0.0672 -0.543118,-0.0672 z m -15.757179,0.0729 v 3.00292 h 0.505396 v -2.13217 c 0.134426,-0.10934 0.274431,-0.19803 0.419612,-0.26614 0.145181,-0.0699 0.295719,-0.1049 0.451652,-0.1049 0.09679,0 0.179696,0.004 0.249598,0.0134 0.07169,0.007 0.145379,0.0198 0.220658,0.0377 h 0.02687 v -0.51889 c -0.07886,-0.0126 -0.137819,-0.0207 -0.177251,-0.0243 -0.03943,-0.005 -0.103377,-0.008 -0.191202,-0.008 -0.15952,0 -0.316113,0.0337 -0.470256,0.10181 -0.15235,0.0663 -0.328939,0.18026 -0.529683,0.34158 v -0.44339 z m 23.640418,0 v 0.76585 h 0.642337 v -0.76585 z m -34.9673754,0.37879 c 0.127257,0 0.244892,0.0118 0.352433,0.0351 0.107542,0.0233 0.229134,0.0652 0.365353,0.12609 v 1.72341 c -0.127257,0.10037 -0.264371,0.183 -0.411345,0.24753 -0.146973,0.0627 -0.292244,0.094 -0.435632,0.094 -0.268854,0 -0.464131,-0.0924 -0.586011,-0.27699 -0.12188,-0.1864 -0.182934,-0.45774 -0.182934,-0.81442 0,-0.36205 0.07895,-0.64154 0.236678,-0.8387 0.157727,-0.19716 0.378266,-0.29611 0.661458,-0.29611 z m 32.3163754,0 c 0.127256,0 0.244374,0.0118 0.351914,0.0351 0.107542,0.0233 0.22965,0.0652 0.365871,0.12609 v 1.72341 c -0.127259,0.10037 -0.264372,0.183 -0.411345,0.24753 -0.146973,0.0627 -0.292243,0.094 -0.435634,0.094 -0.268851,0 -0.464129,-0.0924 -0.58601,-0.27699 -0.12188,-0.1864 -0.182935,-0.45774 -0.182935,-0.81442 0,-0.36205 0.07895,-0.64154 0.23668,-0.8387 0.157726,-0.19716 0.378264,-0.29611 0.661459,-0.29611 z m -47.9639987,0.003 c -6.35e-4,0.0102 -0.0014,0.0203 -0.00206,0.0305 0.020325,0.0273 0.04019,0.0549 0.059945,0.0827 0.00593,0.004 0.01242,0.007 0.018087,0.0114 -0.00198,-0.016 -0.00389,-0.0322 -0.0062,-0.0481 -0.022701,-0.0259 -0.044814,-0.0521 -0.069763,-0.0765 z m 22.7371137,0.0165 c 0.256307,0 0.446318,0.0895 0.569991,0.26872 0.123672,0.17924 0.185518,0.44978 0.185518,0.81184 0,0.37281 -0.07843,0.6544 -0.236161,0.84439 -0.157728,0.18999 -0.377475,0.28473 -0.658875,0.28474 -0.130842,0 -0.248477,-0.0113 -0.352433,-0.0346 -0.102164,-0.0233 -0.224548,-0.0673 -0.367936,-0.13178 v -1.70222 c 0.134427,-0.10217 0.274708,-0.18428 0.421679,-0.24702 0.146974,-0.0627 0.293037,-0.0941 0.438217,-0.0941 z m 8.689392,0.0724 v 0.43046 h 3.188951 v -0.43046 z m -24.93387937,0.13901 c 0.0024,0.007 0.0072,0.0145 0.0093,0.0212 l 0.0072,-0.0124 z m 32.08279637,0.29404 1.285192,1.25263 c -0.111125,0.1649 -0.249031,0.28859 -0.413927,0.37104 -0.163105,0.0807 -0.327853,0.12093 -0.494543,0.12093 -0.2814,0 -0.499565,-0.0797 -0.653706,-0.23927 -0.152353,-0.16131 -0.228412,-0.3729 -0.228412,-0.63458 0,-0.12368 0.01632,-0.23474 0.04858,-0.33332 0.03226,-0.0986 0.07334,-0.18279 0.123505,-0.25269 0.05557,-0.0753 0.111353,-0.13424 0.166915,-0.17725 0.05557,-0.0448 0.110837,-0.0806 0.166399,-0.10749 z m -7.148917,0.69608 v 0.43046 h 3.188951 v -0.43046 z m 19.344039,0.63717 -0.467672,1.76113 h 0.392739 l 0.758095,-1.76113 z m -33.412948,1.25005 v 0.32298 h 3.521749 v -0.32298 z m -6.0332234,2.1885 c -0.335171,0 -0.591502,0.0961 -0.768945,0.28784 -0.177444,0.18999 -0.266134,0.46344 -0.266134,0.8201 v 0.0992 h -0.341065 v 0.42478 h 0.341065 v 2.57866 h 0.505395 v -2.57866 h 0.895553 v -0.42478 h -0.911572 v -0.1018 c 0,-0.25093 0.04842,-0.42384 0.14521,-0.51883 0.09858,-0.0968 0.256481,-0.14521 0.473357,-0.14521 0.06811,0 0.14706,0.009 0.236678,0.0269 0.08962,0.0161 0.161994,0.0319 0.217557,0.0481 h 0.02687 v -0.46251 c -0.07528,-0.0143 -0.158703,-0.0265 -0.250114,-0.0372 -0.08962,-0.0108 -0.190939,-0.0165 -0.303857,-0.0165 z m 78.5269894,0 c -0.335172,0 -0.591503,0.0961 -0.768945,0.28784 -0.177443,0.18999 -0.266134,0.46344 -0.266134,0.8201 v 0.0992 h -0.341583 v 0.42478 h 0.341583 v 2.57866 h 0.505396 v -2.57866 h 0.895035 v -0.42478 h -0.911055 v -0.1018 c 0,-0.25093 0.04842,-0.42384 0.145211,-0.51883 0.09858,-0.0968 0.255963,-0.14521 0.47284,-0.14521 0.06811,0 0.147058,0.009 0.236677,0.0269 0.08962,0.0161 0.16251,0.0319 0.218075,0.0481 h 0.02687 v -0.46251 c -0.07528,-0.0143 -0.158705,-0.0265 -0.250113,-0.0372 -0.08962,-0.0108 -0.190939,-0.0165 -0.303858,-0.0165 z m -44.624148,0.0269 c -0.317249,0.36385 -0.563841,0.76098 -0.739492,1.19114 -0.175649,0.43017 -0.263549,0.91519 -0.263549,1.4547 0,0.53949 0.0879,1.02401 0.263549,1.45417 0.175651,0.43016 0.422243,0.82729 0.739492,1.19114 h 0.615466 v -0.0269 c -0.138012,-0.12367 -0.275919,-0.27501 -0.41393,-0.45423 -0.13801,-0.17745 -0.260911,-0.37641 -0.368451,-0.59687 -0.111128,-0.22942 -0.199819,-0.47155 -0.266134,-0.72605 -0.06453,-0.25452 -0.09664,-0.5348 -0.09664,-0.84129 0,-0.29395 0.0329,-0.57344 0.09922,-0.83871 0.06811,-0.26527 0.156009,-0.50818 0.263552,-0.72864 0.112916,-0.22763 0.235026,-0.42659 0.365868,-0.59686 0.132633,-0.17207 0.27133,-0.32391 0.416513,-0.45476 v -0.0269 z m 14.552599,0 v 1.30173 c -0.134427,-0.0699 -0.262594,-0.12121 -0.384474,-0.15348 -0.12188,-0.034 -0.261369,-0.0512 -0.419095,-0.0512 -0.173858,0 -0.342291,0.0358 -0.505396,0.10749 -0.161312,0.0717 -0.302901,0.17591 -0.424781,0.31213 -0.123671,0.1398 -0.222618,0.30902 -0.296106,0.50797 -0.07169,0.19896 -0.107487,0.42555 -0.107487,0.68007 0,0.48931 0.105005,0.87222 0.314712,1.14825 0.211497,0.27602 0.496255,0.41392 0.854728,0.41392 0.18461,0 0.355936,-0.035 0.513662,-0.1049 0.157729,-0.0699 0.309055,-0.16754 0.454237,-0.293 v 0.31471 h 0.505394 v -4.18373 z m 8.329207,0 v 4.18373 h 0.473356 l 0.03204,-0.14005 c 0.123674,0.0681 0.249465,0.1218 0.376722,0.16123 0.127257,0.0412 0.275693,0.062 0.445968,0.062 0.18282,0 0.350462,-0.035 0.502812,-0.1049 0.15235,-0.0717 0.292354,-0.17828 0.419613,-0.31988 0.120087,-0.13621 0.214834,-0.30465 0.284737,-0.50539 0.07169,-0.20074 0.107487,-0.42655 0.107487,-0.67748 0,-0.49648 -0.102905,-0.88098 -0.309026,-1.15342 -0.204329,-0.27243 -0.483822,-0.40876 -0.838708,-0.40876 -0.19895,0 -0.378433,0.0379 -0.537953,0.11318 -0.159504,0.0735 -0.310055,0.16823 -0.451652,0.28473 v -1.495 z m 3.435967,0 v 4.18373 h 0.505394 v -4.18373 z m 5.874575,0 0.01601,0.96532 -0.973069,-0.57258 -0.174665,0.29559 1.024226,0.55656 -1.024226,0.55655 0.174665,0.29559 0.970484,-0.57516 -0.01344,0.9679 h 0.346749 l -0.01601,-0.9679 0.973066,0.57258 0.172085,-0.29559 -1.021643,-0.55656 1.021643,-0.55087 -0.172085,-0.2961 -0.975651,0.56999 0.0186,-0.96532 z m 2.320272,0 v 0.0269 c 0.145182,0.13085 0.283085,0.28269 0.41393,0.45476 0.13262,0.17027 0.255532,0.36923 0.368451,0.59686 0.109333,0.22046 0.197233,0.46337 0.263551,0.72864 0.06632,0.26527 0.09922,0.54476 0.09922,0.83871 0,0.30649 -0.0329,0.58677 -0.09922,0.84129 -0.06453,0.2545 -0.152424,0.49663 -0.263551,0.72605 -0.105749,0.22046 -0.228661,0.41942 -0.368451,0.59687 -0.138012,0.17922 -0.275918,0.33056 -0.41393,0.45423 v 0.0269 h 0.615466 c 0.317248,-0.36385 0.56384,-0.76098 0.739491,-1.19114 0.175649,-0.43016 0.263549,-0.91468 0.263549,-1.45417 0,-0.53951 -0.0879,-1.02453 -0.263549,-1.4547 -0.175651,-0.43016 -0.422243,-0.82729 -0.739491,-1.19114 z m -55.555781,0.15348 v 0.524 h 0.569474 v -0.524 z m 12.850894,0 v 0.524 h 0.569991 v -0.524 z m 9.678998,0 v 0.524 h 0.569989 v -0.524 z m -24.664646,0.16382 v 0.86299 h -0.341581 v 0.42478 h 0.341581 v 1.59732 c 0,0.36385 0.07974,0.62834 0.239262,0.79323 0.15952,0.1649 0.392173,0.24702 0.698666,0.24702 0.08782,0 0.187563,-0.008 0.298689,-0.0243 0.112919,-0.0161 0.216615,-0.0364 0.311609,-0.0615 v -0.45475 h -0.02687 c -0.03943,0.0161 -0.103653,0.0369 -0.19327,0.062 -0.08962,0.0233 -0.175934,0.0351 -0.258382,0.0351 -0.141597,0 -0.247392,-0.0163 -0.317294,-0.0486 -0.06811,-0.0341 -0.121798,-0.087 -0.16123,-0.15865 -0.04302,-0.0771 -0.06776,-0.15919 -0.07493,-0.24701 -0.0072,-0.0896 -0.01085,-0.21331 -0.01085,-0.37104 v -1.36891 h 1.04283 v -0.42478 h -1.04283 v -0.863 z m 20.0241,0 v 0.86299 h -0.34158 v 0.42478 h 0.34158 v 1.59732 c 0,0.36385 0.07974,0.62834 0.239263,0.79323 0.15952,0.1649 0.392689,0.24702 0.699182,0.24702 0.08783,0 0.187047,-0.008 0.298172,-0.0243 0.112919,-0.0161 0.217131,-0.0364 0.312127,-0.0615 v -0.45475 h -0.02687 c -0.03943,0.0161 -0.104169,0.0369 -0.193789,0.062 -0.0896,0.0233 -0.175932,0.0351 -0.258382,0.0351 -0.141594,0 -0.246874,-0.0163 -0.316775,-0.0486 -0.06811,-0.0341 -0.122316,-0.087 -0.161747,-0.15865 -0.04302,-0.0771 -0.06776,-0.15919 -0.07493,-0.24701 -0.0072,-0.0896 -0.01085,-0.21331 -0.01085,-0.37104 v -1.36891 h 1.043347 v -0.42478 h -1.043347 v -0.863 z m 9.678479,0 v 0.86299 h -0.341063 v 0.42478 h 0.341063 v 1.59732 c 0,0.36385 0.07974,0.62834 0.239263,0.79323 0.15952,0.1649 0.392689,0.24702 0.699183,0.24702 0.08783,0 0.187563,-0.008 0.298688,-0.0243 0.112919,-0.0161 0.216614,-0.0364 0.31161,-0.0615 v -0.45475 h -0.02687 c -0.03942,0.0161 -0.104166,0.0369 -0.193786,0.062 -0.08962,0.0233 -0.175416,0.0351 -0.257865,0.0351 -0.141595,0 -0.247404,-0.0163 -0.317291,-0.0486 -0.06811,-0.0341 -0.121801,-0.087 -0.161232,-0.15865 -0.04302,-0.0771 -0.06828,-0.15919 -0.07545,-0.24701 -0.0072,-0.0896 -0.01085,-0.21331 -0.01085,-0.37104 v -1.36891 h 1.043348 v -0.42478 h -1.043348 v -0.863 z m -15.908072,0.5674 -3.102653,1.37925 v 0.33331 l 3.102653,1.37924 v -0.48369 l -2.446362,-1.06195 2.446362,-1.06195 z m 46.726863,0 v 0.48421 l 2.446361,1.06195 -2.446361,1.06195 v 0.48369 l 3.102652,-1.37924 v -0.33331 z m -65.374303,0.21239 c -0.177444,0 -0.35035,0.0366 -0.5188324,0.11007 -0.168481,0.0735 -0.331648,0.17612 -0.489376,0.30696 v -0.33383 h -0.505395 v 3.00344 h 0.505395 v -2.24224 c 0.138012,-0.10575 0.282491,-0.19286 0.433049,-0.26097 0.1505584,-0.0681 0.2945204,-0.10232 0.4325324,-0.10232 0.134426,0 0.243904,0.0192 0.328145,0.0568 0.08424,0.0358 0.148461,0.0911 0.19327,0.16639 0.04302,0.0681 0.07275,0.16338 0.08888,0.28526 0.01613,0.12008 0.02429,0.24904 0.02429,0.38705 v 1.70998 h 0.505396 v -1.94936 c 0,-0.36743 -0.08501,-0.64902 -0.255282,-0.84439 -0.170274,-0.19537 -0.417657,-0.29301 -0.742074,-0.29301 z m 9.70535,0 c -0.424788,0 -0.762445,0.14238 -1.013374,0.42737 -0.249138,0.28319 -0.373621,0.66979 -0.373621,1.1591 0,0.48931 0.124483,0.87539 0.373621,1.15858 0.250929,0.2832 0.588586,0.42478 1.013374,0.42478 0.421204,0 0.757278,-0.14158 1.008208,-0.42478 0.250929,-0.28319 0.376721,-0.66927 0.376721,-1.15858 0,-0.48931 -0.125792,-0.87591 -0.376721,-1.1591 -0.25093,-0.28499 -0.587004,-0.42737 -1.008208,-0.42737 z m 3.683496,0 c -0.177443,0 -0.350349,0.0366 -0.518831,0.11007 -0.168481,0.0735 -0.331648,0.17612 -0.489376,0.30696 v -0.33383 h -0.505395 v 3.00344 h 0.505395 v -2.24224 c 0.138012,-0.10575 0.282491,-0.19286 0.433049,-0.26097 0.150558,-0.0681 0.29452,-0.10232 0.432531,-0.10232 0.134427,0 0.243905,0.0192 0.328146,0.0568 0.08424,0.0358 0.148978,0.0911 0.193787,0.16639 0.04302,0.0681 0.07223,0.16338 0.08837,0.28526 0.01613,0.12008 0.02429,0.24904 0.02429,0.38705 v 1.70998 h 0.505395 v -1.94936 c 0,-0.36743 -0.08501,-0.64902 -0.255281,-0.84439 -0.170274,-0.19537 -0.417657,-0.29301 -0.742074,-0.29301 z m 9.506397,0 c -0.177443,0 -0.350351,0.0366 -0.518832,0.11007 -0.168481,0.0735 -0.331131,0.17612 -0.488857,0.30696 v -0.33383 h -0.505913 v 3.00344 h 0.505913 v -2.24224 c 0.138009,-0.10575 0.281971,-0.19286 0.43253,-0.26097 0.150558,-0.0681 0.295037,-0.10232 0.433049,-0.10232 0.134426,0 0.243387,0.0192 0.327628,0.0568 0.08424,0.0358 0.148979,0.0911 0.193786,0.16639 0.04302,0.0681 0.07275,0.16338 0.08888,0.28526 0.01614,0.12008 0.02429,0.24904 0.02429,0.38705 v 1.70998 h 0.505394 v -1.94936 c 0,-0.36743 -0.08552,-0.64902 -0.255797,-0.84439 -0.170275,-0.19537 -0.417658,-0.29301 -0.742074,-0.29301 z m 9.678995,0 c -0.177443,0 -0.35035,0.0366 -0.518832,0.11007 -0.168481,0.0735 -0.331647,0.17612 -0.489376,0.30696 v -0.33383 h -0.505394 v 3.00344 h 0.505394 v -2.24224 c 0.138012,-0.10575 0.282491,-0.19286 0.433049,-0.26097 0.150559,-0.0681 0.294521,-0.10232 0.432533,-0.10232 0.134427,0 0.243903,0.0192 0.328144,0.0568 0.08424,0.0358 0.148979,0.0911 0.193786,0.16639 0.04302,0.0681 0.07224,0.16338 0.08837,0.28526 0.01614,0.12008 0.02429,0.24904 0.02429,0.38705 v 1.70998 h 0.505394 v -1.94936 c 0,-0.36743 -0.08501,-0.64902 -0.25528,-0.84439 -0.170276,-0.19537 -0.417659,-0.29301 -0.742075,-0.29301 z m 12.684498,0 c -0.424788,0 -0.762444,0.14238 -1.013375,0.42737 -0.249137,0.28319 -0.374137,0.66979 -0.374137,1.1591 0,0.48931 0.125,0.87539 0.374137,1.15858 0.250931,0.2832 0.588587,0.42478 1.013375,0.42478 0.421204,0 0.757277,-0.14158 1.008206,-0.42478 0.25093,-0.28319 0.376205,-0.66927 0.376205,-1.15858 0,-0.48931 -0.125275,-0.87591 -0.376205,-1.1591 -0.250929,-0.28499 -0.587002,-0.42737 -1.008206,-0.42737 z m 11.848372,0 c -0.437335,0 -0.790514,0.14448 -1.059367,0.43305 -0.26706,0.28857 -0.400492,0.67833 -0.400492,1.16944 0,0.49648 0.140004,0.88019 0.419613,1.15083 0.279606,0.26886 0.668578,0.40308 1.166852,0.40308 0.195369,0 0.381696,-0.024 0.559139,-0.0724 0.177445,-0.0484 0.351142,-0.10865 0.521417,-0.18035 v -0.55139 h -0.02687 c -0.08782,0.0789 -0.235468,0.15992 -0.443383,0.24237 -0.206121,0.0807 -0.411655,0.12092 -0.615982,0.12092 -0.154144,0 -0.29573,-0.0216 -0.424781,-0.0646 -0.127256,-0.043 -0.237527,-0.10775 -0.330729,-0.19378 -0.09679,-0.0878 -0.172847,-0.19968 -0.228409,-0.3359 -0.05556,-0.13801 -0.0832,-0.29908 -0.0832,-0.48369 h 2.212266 v -0.2744 c 0,-0.43555 -0.109751,-0.77162 -0.33021,-1.00821 -0.218668,-0.23659 -0.530789,-0.35502 -0.935861,-0.35502 z m 21.419362,0 c -0.177429,0 -0.350348,0.0366 -0.518829,0.11007 -0.168481,0.0735 -0.33165,0.17612 -0.489376,0.30696 v -0.33383 h -0.505396 v 3.00344 h 0.505396 v -2.24224 c 0.138012,-0.10575 0.28249,-0.19286 0.433049,-0.26097 0.150556,-0.0681 0.295037,-0.10232 0.433049,-0.10232 0.134427,0 0.243387,0.0192 0.327628,0.0568 0.08424,0.0358 0.148976,0.0911 0.193786,0.16639 0.04302,0.0681 0.07276,0.16338 0.08889,0.28526 0.0161,0.12008 0.0238,0.24904 0.0238,0.38705 v 1.70998 h 0.50591 v -1.94936 c 0,-0.36743 -0.0855,-0.64902 -0.2558,-0.84439 -0.17027,-0.19537 -0.417652,-0.29301 -0.742071,-0.29301 z m -75.297727,0.0134 c -0.442712,0 -0.799056,0.14001 -1.069702,0.41962 -0.268852,0.27961 -0.403593,0.66489 -0.403593,1.156 0,0.26348 0.03579,0.49375 0.107487,0.69091 0.07169,0.19716 0.173015,0.36033 0.303857,0.48938 0.12905,0.12905 0.28406,0.22591 0.465088,0.29042 0.181028,0.0627 0.379988,0.0941 0.596863,0.0941 0.170274,0 0.33055,-0.0224 0.481108,-0.0672 0.15235,-0.0448 0.313142,-0.10745 0.481624,-0.1881 v -0.55656 h -0.02687 c -0.03764,0.0305 -0.08895,0.0671 -0.153479,0.11007 -0.06452,0.0412 -0.133219,0.0807 -0.206705,0.11834 -0.08424,0.043 -0.179506,0.078 -0.285254,0.10491 -0.105749,0.0269 -0.209445,0.0403 -0.311609,0.0403 -0.293947,0 -0.522642,-0.0968 -0.685746,-0.29042 -0.161312,-0.19536 -0.241846,-0.47407 -0.241846,-0.83612 0,-0.37281 0.08212,-0.65519 0.247013,-0.84698 0.166688,-0.19357 0.393802,-0.29042 0.680579,-0.29042 0.155935,0 0.315419,0.0321 0.478524,0.0966 0.164896,0.0645 0.324381,0.15689 0.478523,0.27698 h 0.02687 v -0.56172 c -0.138011,-0.0699 -0.290648,-0.12886 -0.457336,-0.17725 -0.164897,-0.0484 -0.33333,-0.0729 -0.505396,-0.0729 z m 78.526991,0 c -0.44271,0 -0.79958,0.14001 -1.07022,0.41962 -0.26885,0.27961 -0.40308,0.66489 -0.40308,1.156 0,0.26348 0.0358,0.49375 0.10749,0.69091 0.0717,0.19716 0.17302,0.36033 0.30386,0.48938 0.12905,0.12905 0.28406,0.22591 0.46508,0.29042 0.18103,0.0627 0.37999,0.0941 0.59687,0.0941 0.17027,0 0.33055,-0.0224 0.4811,-0.0672 0.15235,-0.0448 0.31263,-0.10745 0.48111,-0.1881 v -0.55656 h -0.0269 c -0.0376,0.0305 -0.0884,0.0671 -0.15296,0.11007 -0.0645,0.0412 -0.13374,0.0807 -0.20722,0.11834 -0.0842,0.043 -0.17899,0.078 -0.28474,0.10491 -0.10575,0.0269 -0.20996,0.0403 -0.31213,0.0403 -0.29394,0 -0.52265,-0.0968 -0.68574,-0.29042 -0.16131,-0.19536 -0.24185,-0.47407 -0.24185,-0.83612 0,-0.37281 0.0826,-0.65519 0.24753,-0.84698 0.16669,-0.19357 0.39329,-0.29042 0.68006,-0.29042 0.15594,0 0.31542,0.0321 0.47853,0.0966 0.1649,0.0645 0.32438,0.15689 0.47852,0.27698 h 0.0269 v -0.56172 c -0.13801,-0.0699 -0.29013,-0.12886 -0.45682,-0.17725 -0.16489,-0.0484 -0.33333,-0.0729 -0.50539,-0.0729 z m -90.7624204,0.0696 v 0.76636 h 0.642339 v -0.76636 z m 3.987354,0 v 1.94924 c 0,0.37281 0.08738,0.65598 0.263033,0.84956 0.175651,0.19178 0.421451,0.28784 0.736906,0.28784 0.188198,0 0.360312,-0.0358 0.516248,-0.10749 0.155935,-0.0717 0.319101,-0.1746 0.489375,-0.30903 v 0.33332 h 0.505396 v -3.00344 h -0.505396 v 2.24224 c -0.134426,0.10575 -0.279697,0.19286 -0.435632,0.26097 -0.154143,0.0681 -0.296522,0.10232 -0.427364,0.10232 -0.146972,0 -0.259342,-0.0179 -0.336414,-0.0537 -0.07707,-0.0358 -0.139708,-0.0932 -0.188102,-0.17209 -0.0466,-0.0771 -0.07713,-0.16944 -0.09147,-0.27698 -0.01434,-0.10934 -0.02119,-0.24039 -0.02119,-0.39274 v -1.70998 z m 12.0390584,0 v 3.00344 h 0.505396 v -3.00344 z m 12.851412,0 v 3.00344 h 0.505396 v -3.00344 z m 9.678479,0 v 3.00344 h 0.505396 v -3.00344 z m 17.857308,0 v 1.94924 c 0,0.37281 0.0879,0.65598 0.263549,0.84956 0.175652,0.19178 0.420934,0.28784 0.736388,0.28784 0.188199,0 0.360315,-0.0358 0.51625,-0.10749 0.155935,-0.0717 0.319101,-0.1746 0.489376,-0.30903 v 0.33332 h 0.505394 v -3.00344 h -0.505394 v 2.24224 c -0.134427,0.10575 -0.279699,0.19286 -0.435634,0.26097 -0.154143,0.0681 -0.296521,0.10232 -0.427363,0.10232 -0.146973,0 -0.258826,-0.0179 -0.335896,-0.0537 -0.07707,-0.0358 -0.139711,-0.0932 -0.188103,-0.17209 -0.0466,-0.0771 -0.07713,-0.16944 -0.09147,-0.27698 -0.01434,-0.10934 -0.0217,-0.24039 -0.0217,-0.39274 v -1.70998 z m 26.100214,0 v 1.94924 c 0,0.37281 0.0879,0.65598 0.263552,0.84956 0.175649,0.19178 0.420933,0.28784 0.736388,0.28784 0.188198,0 0.360312,-0.0358 0.516247,-0.10749 0.155935,-0.0717 0.319104,-0.1746 0.489376,-0.30903 v 0.33332 h 0.505397 v -3.00344 h -0.505397 v 2.24224 c -0.134427,0.10575 -0.279696,0.19286 -0.435631,0.26097 -0.154143,0.0681 -0.296524,0.10232 -0.427365,0.10232 -0.146974,0 -0.258826,-0.0179 -0.335897,-0.0537 -0.07707,-0.0358 -0.139708,-0.0932 -0.188103,-0.17209 -0.0466,-0.0771 -0.07713,-0.16944 -0.09147,-0.27698 -0.01434,-0.10934 -0.0217,-0.24039 -0.0217,-0.39274 v -1.70998 z m 10.294465,0 v 0.76636 h 0.64234 v -0.76636 z m -26.721369,0.33383 c 0.268853,0 0.468606,0.0724 0.599448,0.21756 0.132633,0.14518 0.199744,0.3502 0.201538,0.61547 h -1.720308 c 0.02151,-0.23659 0.111782,-0.43425 0.271302,-0.59377 0.161311,-0.15952 0.377375,-0.23926 0.64802,-0.23926 z m -47.374885,0.0186 c 0.270646,0 0.482237,0.0948 0.634587,0.28474 0.15235,0.1882 0.22841,0.47715 0.22841,0.8661 0,0.37997 -0.07685,0.66632 -0.230994,0.85989 -0.15235,0.19178 -0.363149,0.28784 -0.632003,0.28784 -0.272438,0 -0.48482,-0.0968 -0.63717,-0.29042 -0.15235,-0.19537 -0.22841,-0.48092 -0.22841,-0.85731 0,-0.38895 0.07527,-0.6779 0.225826,-0.8661 0.15235,-0.18999 0.365524,-0.28474 0.639754,-0.28474 z m 35.553386,0 c 0.270645,0 0.482235,0.0948 0.634585,0.28474 0.152352,0.1882 0.228412,0.47715 0.228412,0.8661 0,0.37997 -0.07685,0.66632 -0.230995,0.85989 -0.152349,0.19178 -0.363148,0.28784 -0.632002,0.28784 -0.272439,0 -0.48482,-0.0968 -0.637172,-0.29042 -0.15235,-0.19537 -0.22841,-0.48092 -0.22841,-0.85731 0,-0.38895 0.07527,-0.6779 0.225828,-0.8661 0.152349,-0.18999 0.365522,-0.28474 0.639754,-0.28474 z m -3.393075,0.0269 c 0.127257,0 0.244891,0.0118 0.352433,0.0351 0.107543,0.0233 0.229132,0.0652 0.365353,0.12609 v 1.72341 c -0.127257,0.10037 -0.264372,0.18301 -0.411345,0.24753 -0.146974,0.0627 -0.291727,0.094 -0.435115,0.094 -0.268854,0 -0.464648,-0.0924 -0.586529,-0.27698 -0.12188,-0.18641 -0.182417,-0.45826 -0.182417,-0.81494 0,-0.36206 0.07843,-0.64155 0.236162,-0.83871 0.157726,-0.19716 0.378264,-0.29559 0.661458,-0.29559 z m 10.417969,0.0186 c 0.263475,0 0.454795,0.0932 0.57309,0.27957 0.118298,0.18462 0.177252,0.45647 0.177252,0.81494 0,0.39253 -0.07974,0.68097 -0.239262,0.86558 -0.157729,0.18282 -0.376166,0.2744 -0.655775,0.2744 -0.130842,0 -0.248476,-0.0126 -0.352433,-0.0377 -0.102164,-0.0251 -0.225065,-0.0698 -0.368454,-0.13436 v -1.72082 c 0.129051,-0.10038 0.269055,-0.1817 0.419614,-0.24443 0.150558,-0.0645 0.298995,-0.0972 0.445968,-0.0972 z m -61.2903164,1.83917 v 0.76637 h 0.642339 v -0.76637 z m 46.0896944,0 -0.467672,1.76114 h 0.392224 l 0.758092,-1.76114 z m 46.874656,0 -0.46819,1.76114 h 0.39274 l 0.7581,-1.76114 z m -94.82728537,0.38551 c -0.0055,0.004 -0.01014,0.006 -0.01602,0.0114 6.72e-4,0.0627 0.003,0.13745 -0.0015,0.14986 -0.02865,0.0777 -0.07145,0.1488 -0.115238,0.21963 h 0.132808 z m -4.12584623,0.0434 c -0.00715,5.3e-4 -0.014938,5.3e-4 -0.021188,0.002 -0.019047,0.0193 -0.040722,0.0366 -0.059945,0.0558 0.029889,-0.018 0.054386,-0.0376 0.081132,-0.0579 z m 1.9885091,0.14728 c -0.018227,0.0317 -0.037566,0.063 -0.053227,0.0956 -0.042628,0.0371 -0.072275,0.0647 -0.1049031,0.0946 h 0.1012857 c 0.021161,-0.008 0.042054,-0.0159 0.063045,-0.0238 0.011697,-0.0159 0.026159,-0.0299 0.036173,-0.047 0.022019,-0.0377 -0.012218,-0.0786 -0.042375,-0.11937 z m -6.9794188,0.0165 c -0.093221,0.0901 -0.1408408,0.1311 -0.1808675,0.16433 0.00408,0.001 0.00726,0.002 0.011369,0.004 0.1058489,0.0295 0.2190345,0.0482 0.3364135,0.061 -0.065655,-0.0675 -0.1221156,-0.14414 -0.1669148,-0.22893 z"
         style="font-style:normal;font-weight:normal;font-size:5.50612px;line-height:1.25;font-family:sans-serif;opacity:0.219355;fill:#cccccc;fill-opacity:1;stroke:none;stroke-width:0.137653"
         id="text944" />
      <g
         aria-label="int* std_ptr = &amp;std;
std::function&lt;int(int, double*)&gt; func;"
         id="text1004"
         style="font-style:normal;font-weight:normal;font-size:5.50612px;line-height:1.25;font-family:sans-serif;opacity:0.493548;mix-blend-mode:normal;fill:#cccccc;fill-opacity:1;stroke:none;stroke-width:0.137653"
         transform="translate(16.727274,6.8572953)">
        <path
           d="m 168.35661,83.24106 h -0.56997 v -0.524264 h 0.56997 z m -0.0323,3.50585 h -0.50545 v -3.003094 h 0.50545 z"
           style="fill:#cccccc;stroke-width:0.137653"
           id="path1006" />
        <path
           d="m 171.84095,86.74691 h -0.50544 v -1.709908 q 0,-0.207018 -0.0242,-0.387149 -0.0242,-0.182821 -0.0887,-0.284985 -0.0672,-0.112919 -0.19358,-0.166689 -0.12636,-0.05646 -0.328,-0.05646 -0.20701,0 -0.43285,0.102165 -0.22584,0.102164 -0.43286,0.260788 v 2.242238 h -0.50544 v -3.003094 h 0.50544 v 0.333379 q 0.2366,-0.196263 0.48932,-0.306493 0.25272,-0.11023 0.51889,-0.11023 0.48662,0 0.74203,0.29305 0.25541,0.29305 0.25541,0.8442 z"
           style="fill:#cccccc;stroke-width:0.137653"
           id="path1008" />
        <path
           d="m 174.37355,86.720025 q -0.14249,0.03764 -0.31187,0.06184 -0.16669,0.0242 -0.29843,0.0242 -0.45974,0 -0.69901,-0.247345 -0.23928,-0.247346 -0.23928,-0.793118 v -1.59699 h -0.34145 v -0.424789 h 0.34145 v -0.86302 h 0.50544 v 0.86302 h 1.04315 v 0.424789 h -1.04315 v 1.368464 q 0,0.236591 0.0108,0.371018 0.0108,0.131738 0.0753,0.247345 0.0592,0.107542 0.16132,0.158624 0.10485,0.04839 0.31724,0.04839 0.12368,0 0.2581,-0.03495 0.13443,-0.03764 0.19358,-0.06184 h 0.0269 z"
           style="fill:#cccccc;stroke-width:0.137653"
           id="path1010" />
        <path
           d="m 177.54602,84.362179 -0.17206,0.295739 -0.97325,-0.572658 0.0161,0.967873 h -0.34682 l 0.0134,-0.967873 -0.97056,0.575347 -0.17476,-0.295739 1.02434,-0.556527 -1.02434,-0.556527 0.17476,-0.295739 0.97325,0.572658 -0.0161,-0.965184 h 0.34682 l -0.0188,0.965184 0.97594,-0.569969 0.17206,0.295739 -1.02164,0.55115 z"
           style="fill:#cccccc;stroke-width:0.137653"
           id="path1012" />
        <path
           d="m 182.57358,85.881202 q 0,0.411346 -0.34144,0.674822 -0.33875,0.263477 -0.92754,0.263477 -0.33338,0 -0.61299,-0.07797 -0.27692,-0.08066 -0.46512,-0.174755 v -0.567281 h 0.0269 q 0.23928,0.180132 0.53233,0.287674 0.29305,0.104852 0.5619,0.104852 0.33338,0 0.52158,-0.107541 0.1882,-0.107541 0.1882,-0.338755 0,-0.177444 -0.10217,-0.268854 -0.10216,-0.09141 -0.39252,-0.155935 -0.10755,-0.0242 -0.2823,-0.05646 -0.17207,-0.03226 -0.31456,-0.0699 -0.39521,-0.104853 -0.5619,-0.306493 -0.164,-0.204329 -0.164,-0.500068 0,-0.185509 0.0753,-0.349509 0.078,-0.164001 0.2339,-0.293051 0.15056,-0.126361 0.38177,-0.198951 0.2339,-0.07528 0.52158,-0.07528 0.26885,0 0.54308,0.06721 0.27692,0.06453 0.45974,0.158624 v 0.540395 h -0.0269 q -0.19357,-0.142492 -0.47049,-0.239279 -0.27692,-0.09948 -0.54308,-0.09948 -0.27692,0 -0.46781,0.107541 -0.19089,0.104853 -0.19089,0.314559 0,0.185509 0.11561,0.279608 0.11292,0.0941 0.36564,0.153246 0.13981,0.03226 0.31187,0.06452 0.17476,0.03226 0.29036,0.05915 0.3522,0.08066 0.54309,0.276919 0.19088,0.198951 0.19088,0.526953 z"
           style="fill:#cccccc;stroke-width:0.137653"
           id="path1014" />
        <path
           d="m 184.85884,86.720025 q -0.14249,0.03764 -0.31187,0.06184 -0.16669,0.0242 -0.29843,0.0242 -0.45974,0 -0.69902,-0.247345 -0.23928,-0.247346 -0.23928,-0.793118 v -1.59699 h -0.34144 v -0.424789 h 0.34144 v -0.86302 h 0.50545 v 0.86302 h 1.04315 v 0.424789 h -1.04315 v 1.368464 q 0,0.236591 0.0108,0.371018 0.0108,0.131738 0.0753,0.247345 0.0591,0.107542 0.16131,0.158624 0.10486,0.04839 0.31725,0.04839 0.12367,0 0.2581,-0.03495 0.13443,-0.03764 0.19357,-0.06184 h 0.0269 z"
           style="fill:#cccccc;stroke-width:0.137653"
           id="path1016" />
        <path
           d="m 187.90764,86.74691 h -0.50545 v -0.314559 q -0.21777,0.188198 -0.45436,0.293051 -0.23659,0.104853 -0.51351,0.104853 -0.53771,0 -0.85495,-0.414035 -0.31456,-0.414034 -0.31456,-1.148004 0,-0.381772 0.10754,-0.6802 0.11023,-0.298427 0.29574,-0.508133 0.18282,-0.204329 0.42479,-0.31187 0.24465,-0.107541 0.50544,-0.107541 0.23659,0 0.41941,0.05108 0.18282,0.04839 0.38446,0.153246 v -1.301251 h 0.50545 z m -0.50545,-0.739347 v -1.723351 q -0.20432,-0.09141 -0.36564,-0.126361 -0.16131,-0.03495 -0.35219,-0.03495 -0.42479,0 -0.66138,0.295739 -0.2366,0.295738 -0.2366,0.838823 0,0.535018 0.18283,0.814626 0.18282,0.276919 0.5861,0.276919 0.21508,0 0.43554,-0.0941 0.22046,-0.09679 0.41134,-0.247345 z"
           style="fill:#cccccc;stroke-width:0.137653"
           id="path1018" />
        <path
           d="m 191.91624,87.553471 h -3.52198 v -0.322625 h 3.52198 z"
           style="fill:#cccccc;stroke-width:0.137653"
           id="path1020" />
        <path
           d="m 792.87305,270.04492 v 15.53711 h 1.91015 v -4.75586 c 0.0672,0.0368 0.13244,0.06 0.19922,0.0937 -0.028,-0.10468 -0.0589,-0.20907 -0.0684,-0.32226 -0.0336,-0.44584 0.0477,-0.80658 0.24805,-1.17188 -0.12264,-0.0477 -0.2427,-0.093 -0.37891,-0.1543 v -6.43164 c 0.0286,-0.0217 0.0592,-0.0375 0.0879,-0.0586 -0.0314,-0.12477 -0.0617,-0.24986 -0.0996,-0.37305 -0.14782,-0.47988 -0.3838,-0.6657 0.0117,-1.24023 v -1.12305 z"
           transform="matrix(0.26458333,0,0,0.26458333,-17.37252,12.294398)"
           style="fill:#cccccc;stroke-width:0.520263"
           id="path1022" />
        <path
           d="m 882.46875,266.7832 c 0.0223,0.0125 0.0465,0.0221 0.0684,0.0352 v -0.0352 z"
           transform="matrix(0.26458333,0,0,0.26458333,-17.37252,12.294398)"
           style="fill:#cccccc;stroke-width:0.520263"
           id="path1034" />
        <path
           d="m 169.95898,92.763852 q 0,0.411346 -0.34145,0.674822 -0.33875,0.263477 -0.92754,0.263477 -0.33338,0 -0.61299,-0.07797 -0.27692,-0.08066 -0.46511,-0.174755 v -0.56728 h 0.0269 q 0.23928,0.180131 0.53233,0.287673 0.29305,0.104853 0.5619,0.104853 0.33338,0 0.52158,-0.107542 0.1882,-0.107541 0.1882,-0.338755 0,-0.177443 -0.10217,-0.268854 -0.10216,-0.09141 -0.39252,-0.155935 -0.10754,-0.0242 -0.2823,-0.05646 -0.17206,-0.03226 -0.31456,-0.0699 -0.39521,-0.104853 -0.5619,-0.306493 -0.164,-0.204329 -0.164,-0.500067 0,-0.185509 0.0753,-0.34951 0.078,-0.164001 0.2339,-0.29305 0.15056,-0.126362 0.38177,-0.198952 0.2339,-0.07528 0.52158,-0.07528 0.26885,0 0.54308,0.06721 0.27692,0.06453 0.45974,0.158624 v 0.540396 h -0.0269 q -0.19358,-0.142493 -0.4705,-0.23928 -0.27692,-0.09948 -0.54308,-0.09948 -0.27692,0 -0.46781,0.107542 -0.19088,0.104852 -0.19088,0.314558 0,0.185509 0.1156,0.279608 0.11292,0.0941 0.36564,0.153246 0.13981,0.03226 0.31188,0.06452 0.17475,0.03226 0.29036,0.05915 0.3522,0.08066 0.54308,0.276919 0.19089,0.198952 0.19089,0.526953 z"
           style="fill:#cccccc;stroke-width:0.137653"
           id="path1040" />
        <path
           d="m 172.24423,93.602675 q -0.14249,0.03764 -0.31187,0.06184 -0.16669,0.0242 -0.29843,0.0242 -0.45973,0 -0.69901,-0.247345 -0.23928,-0.247345 -0.23928,-0.793118 v -1.59699 h -0.34145 v -0.424789 h 0.34145 v -0.863019 h 0.50544 v 0.863019 h 1.04315 v 0.424789 h -1.04315 v 1.368464 q 0,0.236592 0.0108,0.371018 0.0108,0.131739 0.0753,0.247346 0.0591,0.107541 0.16132,0.158623 0.10485,0.04839 0.31724,0.04839 0.12368,0 0.2581,-0.03495 0.13443,-0.03764 0.19358,-0.06184 h 0.0269 z"
           style="fill:#cccccc;stroke-width:0.137653"
           id="path1042" />
        <path
           d="m 175.29303,93.62956 h -0.50544 v -0.314558 q -0.21777,0.188197 -0.45437,0.29305 -0.23659,0.104853 -0.51351,0.104853 -0.5377,0 -0.85495,-0.414034 -0.31456,-0.414035 -0.31456,-1.148005 0,-0.381772 0.10754,-0.680199 0.11023,-0.298428 0.29574,-0.508134 0.18282,-0.204328 0.42479,-0.31187 0.24466,-0.107541 0.50544,-0.107541 0.2366,0 0.41942,0.05108 0.18282,0.04839 0.38446,0.153247 v -1.301252 h 0.50544 z m -0.50544,-0.739347 v -1.723351 q -0.20433,-0.09141 -0.36564,-0.126361 -0.16132,-0.03495 -0.3522,-0.03495 -0.42479,0 -0.66138,0.295739 -0.23659,0.295739 -0.23659,0.838823 0,0.535018 0.18282,0.814626 0.18282,0.276919 0.5861,0.276919 0.21508,0 0.43554,-0.0941 0.22046,-0.09679 0.41135,-0.247345 z"
           style="fill:#cccccc;stroke-width:0.137653"
           id="path1044" />
        <path
           d="m 177.3632,91.392699 h -0.64256 v -0.766233 h 0.64256 z m 0,2.236861 h -0.64256 v -0.766232 h 0.64256 z"
           style="fill:#cccccc;stroke-width:0.137653"
           id="path1046" />
        <path
           d="m 179.86892,91.392699 h -0.64256 v -0.766233 h 0.64256 z m 0,2.236861 h -0.64256 v -0.766232 h 0.64256 z"
           style="fill:#cccccc;stroke-width:0.137653"
           id="path1048" />
        <path
           d="m 182.91503,89.935513 h -0.0269 q -0.0833,-0.0242 -0.21777,-0.04839 -0.13442,-0.02688 -0.23659,-0.02688 -0.32531,0 -0.47318,0.145181 -0.14518,0.142492 -0.14518,0.518887 v 0.102164 h 0.91141 v 0.424789 h -0.89528 v 2.578305 h -0.50545 v -2.578305 h -0.34144 v -0.424789 h 0.34144 v -0.09947 q 0,-0.535019 0.26617,-0.820004 0.26616,-0.287673 0.76892,-0.287673 0.16938,0 0.3038,0.01613 0.13712,0.01613 0.25004,0.03764 z"
           style="fill:#cccccc;stroke-width:0.137653"
           id="path1050" />
        <path
           d="m 185.72455,93.62956 h -0.50545 v -0.333378 q -0.25541,0.20164 -0.48931,0.309182 -0.2339,0.107541 -0.5162,0.107541 -0.47318,0 -0.73666,-0.287673 -0.26347,-0.290362 -0.26347,-0.849577 v -1.949189 h 0.50544 v 1.709909 q 0,0.228525 0.0215,0.392526 0.0215,0.161312 0.0914,0.276919 0.0726,0.118296 0.1882,0.172066 0.1156,0.05377 0.33606,0.05377 0.19627,0 0.42748,-0.102164 0.2339,-0.102165 0.43554,-0.260788 v -2.242239 h 0.50545 z"
           style="fill:#cccccc;stroke-width:0.137653"
           id="path1052" />
        <path
           d="m 189.2304,93.62956 h -0.50545 v -1.709908 q 0,-0.207017 -0.0242,-0.387149 -0.0242,-0.182821 -0.0887,-0.284985 -0.0672,-0.112918 -0.19358,-0.166689 -0.12636,-0.05646 -0.328,-0.05646 -0.20702,0 -0.43285,0.102164 -0.22584,0.102164 -0.43286,0.260788 v 2.242238 h -0.50544 v -3.003094 h 0.50544 v 0.333379 q 0.23659,-0.196263 0.48931,-0.306493 0.25273,-0.11023 0.51889,-0.11023 0.48663,0 0.74204,0.29305 0.25541,0.293051 0.25541,0.8442 z"
           style="fill:#cccccc;stroke-width:0.137653"
           id="path1054" />
        <path
           d="m 192.42438,93.441363 q -0.25272,0.120984 -0.48125,0.188197 -0.22584,0.06721 -0.48125,0.06721 -0.32531,0 -0.59685,-0.0941 -0.27155,-0.09679 -0.46512,-0.290362 -0.19626,-0.193574 -0.3038,-0.489313 -0.10755,-0.295739 -0.10755,-0.690954 0,-0.736658 0.40328,-1.15607 0.40597,-0.419411 1.07004,-0.419411 0.2581,0 0.50545,0.07259 0.25003,0.07259 0.45705,0.177443 v 0.561904 h -0.0269 q -0.23121,-0.180132 -0.47856,-0.276919 -0.24465,-0.09679 -0.47856,-0.09679 -0.43016,0 -0.6802,0.290362 -0.24734,0.287673 -0.24734,0.846888 0,0.543084 0.24197,0.836135 0.24465,0.290361 0.68557,0.290361 0.15325,0 0.31187,-0.04033 0.15863,-0.04033 0.28499,-0.104852 0.11023,-0.05646 0.20702,-0.118296 0.0968,-0.06452 0.15324,-0.11023 h 0.0269 z"
           style="fill:#cccccc;stroke-width:0.137653"
           id="path1056" />
        <path
           d="m 795.43359,293.82422 v 1.80273 c 0.0162,-0.0729 0.0209,-0.14895 0.043,-0.21875 0.008,-0.0252 0.0504,-0.0341 0.0527,-0.0605 0.004,-0.0245 -0.0231,-0.69293 -0.0117,-0.71485 0.0267,-0.0512 0.0651,-0.0956 0.0957,-0.14453 -8.4e-4,-0.005 -9.1e-4,-0.008 -0.002,-0.0117 -0.0519,-0.21937 -0.11407,-0.43605 -0.17774,-0.65234 z m 0.21875,0.60351 c -0.0104,0.007 -0.0231,0.0105 -0.0332,0.0176 -0.0102,0.007 -1.3e-4,0.0242 -0.002,0.0352 0.0112,-0.0178 0.0236,-0.0351 0.0351,-0.0527 z m 0.38282,0.99415 c -0.008,0.0166 -0.006,0.0289 0.01,0.0371 -0.003,-0.0123 -0.006,-0.0248 -0.01,-0.0371 z m -1.89258,0.63671 v 1.60547 h 1.21875 c 0.001,-0.0951 -0.002,-0.19007 0,-0.28515 0.006,-0.40285 -0.0485,-0.79262 -0.0371,-1.19532 0.006,-0.0412 0.019,-0.0831 0.0254,-0.125 z m 3,9.25196 v 0.19336 c 0.0277,0.008 0.0425,0.0206 0.0684,0.0312 -0.0601,-0.2348 -0.0655,-0.2504 -0.0684,-0.22461 z m 0.54297,2.01562 c -0.11342,-0.005 -0.22881,0.007 -0.34571,0.0195 0.10816,0.043 0.23511,0.0658 0.35157,0.0996 -0.002,-0.0397 -0.007,-0.0794 -0.006,-0.11914 z"
           transform="matrix(0.26458333,0,0,0.26458333,-17.37252,12.294398)"
           style="fill:#cccccc;stroke-width:0.520263"
           id="path1058" />
        <path
           d="m 804.79883,296.53125 c 0.002,0.24374 0.011,0.48835 -0.004,0.72852 0.006,0.1266 0.0159,0.25725 0.0234,0.38476 -0.002,-0.18601 -0.004,-0.37221 0.0234,-0.55664 0.008,-0.0878 0.022,-0.34514 0.0371,-0.35156 0.0299,-0.0135 0.0758,0.11182 0.0644,0.0801 -0.0397,-0.0988 -0.10399,-0.18692 -0.14453,-0.28516 z"
           transform="matrix(0.26458333,0,0,0.26458333,-17.37252,12.294398)"
           style="fill:#cccccc;stroke-width:0.520263"
           id="path1060" />
        <path
           d="m 969.51758,291.59766 v 0.006 c 0.0176,-0.004 0.0116,-0.002 0.0293,-0.006 z"
           transform="matrix(0.26458333,0,0,0.26458333,-17.37252,12.294398)"
           style="fill:#cccccc;stroke-width:0.520263"
           id="path1090" />
        <path
           d="m 1051.6934,291.49609 c -0.4636,0 -0.8741,0.0651 -1.2579,0.16211 0.4064,-0.0573 1.0187,-0.10022 1.6387,-0.14258 -0.1318,-0.004 -0.2393,-0.0195 -0.3808,-0.0195 z"
           transform="matrix(0.26458333,0,0,0.26458333,-17.37252,12.294398)"
           style="fill:#cccccc;stroke-width:0.520263"
           id="path1102" />
      </g>
      <text
         xml:space="preserve"
         style="font-style:normal;font-weight:normal;font-size:4.67298px;line-height:1.25;font-family:sans-serif;opacity:0.345161;fill:#000000;fill-opacity:1;stroke:none;stroke-width:0.116825;filter:url(#filter2106)"
         x="0.53454119"
         y="23.543993"
         id="text1818"><tspan
           sodipodi:role="line"
           id="tspan1816"
           x="0.53454119"
           y="23.543993"
           style="font-style:normal;font-variant:normal;font-weight:normal;font-stretch:normal;font-family:'Fira Code';-inkscape-font-specification:'Fira Code';stroke-width:0.116825">def func(self, key):</tspan><tspan
           sodipodi:role="line"
           x="0.53454119"
           y="29.559662"
           style="font-style:normal;font-variant:normal;font-weight:normal;font-stretch:normal;font-family:'Fira Code';-inkscape-font-specification:'Fira Code';stroke-width:0.116825"
           id="tspan1820">    if a &gt; key and b &lt; key</tspan></text>
      <g
         style="fill:#0000ff"
         transform="translate(1.7008929,-0.56696429)"
         id="g2647">
        <rect
           style="opacity:0.345161;fill:#0000ff;fill-opacity:1;stroke:#000000;stroke-width:0.274902;stroke-linecap:round;stroke-miterlimit:4;stroke-dasharray:none;stroke-opacity:0"
           id="rect2638"
           width="34.017857"
           height="12.851191"
           x="90.069038"
           y="86.809425" />
        <text
           xml:space="preserve"
           style="font-style:normal;font-weight:normal;font-size:6.18225px;line-height:1.25;font-family:sans-serif;fill:#ffffff;fill-opacity:1;stroke:none;stroke-width:0.154557;"
           x="94.213875"
           y="95.542801"
           id="text2642"><tspan
             sodipodi:role="line"
             id="tspan2640"
             x="94.213875"
             y="95.542801"
             style="stroke-width:0.154557;fill:#ffffff;">Click Me</tspan></text>
      </g>
    </g>
  </g>
</svg>
